<svg width="364" height="74" viewBox="0 0 364 74" fill="none" xmlns="http://www.w3.org/2000/svg">
<path d="M6.15625 0.59375V55.4375L20.7812 31.8125L40.1875 71.6562L35.4062 74L20.2188 42.7812L0.8125 74V0.59375H6.15625ZM91.1875 68.7031V74H51.8125V0.59375H91.1875V5.89062H57.1562V68.7031H91.1875ZM142.188 68.7031V74H102.812V0.59375H108.156V68.7031H142.188ZM190.516 5.89062C184.766 5.89062 179.516 7.3125 174.766 10.1562C170.016 12.9688 166.219 16.75 163.375 21.5C160.562 26.25 159.156 31.5156 159.156 37.2969C159.156 43.0781 160.562 48.3438 163.375 53.0938C166.219 57.8438 170.016 61.6406 174.766 64.4844C179.516 67.2969 184.766 68.7031 190.516 68.7031H193.188V74H190.516C185.609 74 180.922 73.0781 176.453 71.2344C172.016 69.3906 168.047 66.7344 164.547 63.2656C161.078 59.7656 158.422 55.7969 156.578 51.3594C154.734 46.8906 153.812 42.2031 153.812 37.2969C153.812 32.3906 154.734 27.7188 156.578 23.2812C158.422 18.8125 161.078 14.8281 164.547 11.3281C168.047 7.85938 172.016 5.20312 176.453 3.35938C180.922 1.51563 185.609 0.59375 190.516 0.59375H193.188V5.89062H190.516ZM232.984 68.7031C237.172 68.7031 241 67.2969 244.469 64.4844C247.938 61.6406 250.703 57.8438 252.766 53.0938C254.828 48.3438 255.859 43.0781 255.859 37.2969C255.859 31.5156 254.828 26.25 252.766 21.5C250.703 16.75 247.938 12.9688 244.469 10.1562C241 7.3125 237.172 5.89062 232.984 5.89062C228.797 5.89062 224.969 7.3125 221.5 10.1562C218.031 12.9688 215.266 16.75 213.203 21.5C211.141 26.25 210.109 31.5156 210.109 37.2969C210.109 43.0781 211.141 48.3438 213.203 53.0938C215.266 57.8438 218.031 61.6406 221.5 64.4844C224.969 67.2969 228.797 68.7031 232.984 68.7031ZM253.141 11.6094C258.484 19.0781 261.156 27.6406 261.156 37.2969C261.156 46.9531 258.484 55.5156 253.141 62.9844C250.453 66.5469 247.375 69.2812 243.906 71.1875C240.469 73.0625 236.828 74 232.984 74C229.141 74 225.484 73.0625 222.016 71.1875C218.578 69.2812 215.516 66.5469 212.828 62.9844C207.484 55.5156 204.812 46.9531 204.812 37.2969C204.812 27.6406 207.484 19.0781 212.828 11.6094C215.516 8.04688 218.578 5.32812 222.016 3.45312C225.484 1.54687 229.141 0.59375 232.984 0.59375C236.828 0.59375 240.469 1.54687 243.906 3.45312C247.375 5.32812 250.453 8.04688 253.141 11.6094ZM278.125 74H272.781V0.59375L292.188 31.8125L307.375 0.59375L312.156 2.9375L292.75 42.7812L278.125 19.1562V74ZM363.156 68.7031V74H323.781V0.59375H363.156V5.89062H329.125V68.7031H363.156Z" fill="white"/>
<path d="M6.15625 0.59375H9.15625V-2.40625H6.15625V0.59375ZM6.15625 55.4375H3.15625V65.9832L8.70705 57.0166L6.15625 55.4375ZM20.7812 31.8125L23.4783 30.4989L21.0952 25.6058L18.2305 30.2334L20.7812 31.8125ZM40.1875 71.6562L41.508 74.35L44.1949 73.0329L42.8846 70.3426L40.1875 71.6562ZM35.4062 74L32.7085 75.3124L34.0249 78.0182L36.7267 76.6938L35.4062 74ZM20.2188 42.7812L22.9165 41.4689L20.5395 36.5828L17.6709 41.1974L20.2188 42.7812ZM0.8125 74H-2.1875V84.5086L3.36036 75.5838L0.8125 74ZM0.8125 0.59375V-2.40625H-2.1875V0.59375H0.8125ZM3.15625 0.59375V55.4375H9.15625V0.59375H3.15625ZM8.70705 57.0166L23.332 33.3916L18.2305 30.2334L3.60545 53.8584L8.70705 57.0166ZM18.0842 33.1261L37.4904 72.9699L42.8846 70.3426L23.4783 30.4989L18.0842 33.1261ZM38.867 68.9625L34.0858 71.3062L36.7267 76.6938L41.508 74.35L38.867 68.9625ZM38.104 72.6876L22.9165 41.4689L17.521 44.0936L32.7085 75.3124L38.104 72.6876ZM17.6709 41.1974L-1.73536 72.4162L3.36036 75.5838L22.7666 44.3651L17.6709 41.1974ZM3.8125 74V0.59375H-2.1875V74H3.8125ZM0.8125 3.59375H6.15625V-2.40625H0.8125V3.59375ZM91.1875 68.7031H94.1875V65.7031H91.1875V68.7031ZM91.1875 74V77H94.1875V74H91.1875ZM51.8125 74H48.8125V77H51.8125V74ZM51.8125 0.59375V-2.40625H48.8125V0.59375H51.8125ZM91.1875 0.59375H94.1875V-2.40625H91.1875V0.59375ZM91.1875 5.89062V8.89062H94.1875V5.89062H91.1875ZM57.1562 5.89062V2.89062H54.1562V5.89062H57.1562ZM57.1562 68.7031H54.1562V71.7031H57.1562V68.7031ZM88.1875 68.7031V74H94.1875V68.7031H88.1875ZM91.1875 71H51.8125V77H91.1875V71ZM54.8125 74V0.59375H48.8125V74H54.8125ZM51.8125 3.59375H91.1875V-2.40625H51.8125V3.59375ZM88.1875 0.59375V5.89062H94.1875V0.59375H88.1875ZM91.1875 2.89062H57.1562V8.89062H91.1875V2.89062ZM54.1562 5.89062V68.7031H60.1562V5.89062H54.1562ZM57.1562 71.7031H91.1875V65.7031H57.1562V71.7031ZM142.188 68.7031H145.188V65.7031H142.188V68.7031ZM142.188 74V77H145.188V74H142.188ZM102.812 74H99.8125V77H102.812V74ZM102.812 0.59375V-2.40625H99.8125V0.59375H102.812ZM108.156 0.59375H111.156V-2.40625H108.156V0.59375ZM108.156 68.7031H105.156V71.7031H108.156V68.7031ZM139.188 68.7031V74H145.188V68.7031H139.188ZM142.188 71H102.812V77H142.188V71ZM105.812 74V0.59375H99.8125V74H105.812ZM102.812 3.59375H108.156V-2.40625H102.812V3.59375ZM105.156 0.59375V68.7031H111.156V0.59375H105.156ZM108.156 71.7031H142.188V65.7031H108.156V71.7031ZM174.766 10.1562L176.294 12.7377L176.3 12.734L176.307 12.7302L174.766 10.1562ZM163.375 21.5L160.801 19.959L160.797 19.9653L160.794 19.9715L163.375 21.5ZM163.375 53.0938L160.794 54.6222L160.797 54.6285L160.801 54.6347L163.375 53.0938ZM174.766 64.4844L173.225 67.0583L173.231 67.0621L173.237 67.0658L174.766 64.4844ZM193.188 68.7031H196.188V65.7031H193.188V68.7031ZM193.188 74V77H196.188V74H193.188ZM176.453 71.2344L175.302 74.0048L175.309 74.0076L176.453 71.2344ZM164.547 63.2656L162.416 65.3774L162.426 65.387L162.435 65.3964L164.547 63.2656ZM156.578 51.3594L153.805 52.5036L153.808 52.5105L156.578 51.3594ZM156.578 23.2812L159.349 24.4323L159.351 24.4254L156.578 23.2812ZM164.547 11.3281L162.435 9.19731L162.426 9.20678L162.416 9.21634L164.547 11.3281ZM176.453 3.35938L175.309 0.586136L175.302 0.588991L176.453 3.35938ZM193.188 0.59375H196.188V-2.40625H193.188V0.59375ZM193.188 5.89062V8.89062H196.188V5.89062H193.188ZM190.516 2.89062C184.245 2.89062 178.459 4.44868 173.225 7.58228L176.307 12.7302C180.572 10.1763 185.286 8.89062 190.516 8.89062V2.89062ZM173.237 7.57482C168.056 10.6425 163.9 14.7819 160.801 19.959L165.949 23.041C168.537 18.7181 171.975 15.295 176.294 12.7377L173.237 7.57482ZM160.794 19.9715C157.694 25.2066 156.156 31.0044 156.156 37.2969H162.156C162.156 32.0269 163.431 27.2934 165.956 23.0285L160.794 19.9715ZM156.156 37.2969C156.156 43.5894 157.694 49.3872 160.794 54.6222L165.956 51.5653C163.431 47.3004 162.156 42.5669 162.156 37.2969H156.156ZM160.801 54.6347C163.899 59.8089 168.05 63.9606 173.225 67.0583L176.307 61.9104C171.981 59.3206 168.539 55.8786 165.949 51.5528L160.801 54.6347ZM173.237 67.0658C178.47 70.164 184.251 71.7031 190.516 71.7031V65.7031C185.28 65.7031 180.562 64.4298 176.294 61.9029L173.237 67.0658ZM190.516 71.7031H193.188V65.7031H190.516V71.7031ZM190.188 68.7031V74H196.188V68.7031H190.188ZM193.188 71H190.516V77H193.188V71ZM190.516 71C185.996 71 181.698 70.1529 177.597 68.4611L175.309 74.0076C180.146 76.0033 185.223 77 190.516 77V71ZM177.604 68.464C173.535 66.7731 169.89 64.3373 166.659 61.1348L162.435 65.3964C166.204 69.1314 170.497 72.0082 175.302 74.0048L177.604 68.464ZM166.678 61.1538C163.475 57.9225 161.039 54.278 159.349 50.2083L153.808 52.5105C155.804 57.3158 158.681 61.6088 162.416 65.3774L166.678 61.1538ZM159.351 50.2152C157.66 46.1148 156.812 41.8166 156.812 37.2969H150.812C150.812 42.5897 151.809 47.6664 153.805 52.5036L159.351 50.2152ZM156.812 37.2969C156.812 32.7772 157.66 28.4972 159.349 24.4323L153.808 22.1302C151.809 26.9403 150.812 32.0041 150.812 37.2969H156.812ZM159.351 24.4254C161.043 20.3251 163.479 16.6678 166.678 13.4399L162.416 9.21634C158.678 12.9884 155.801 17.2999 153.805 22.1371L159.351 24.4254ZM166.659 13.4589C169.89 10.2564 173.535 7.82068 177.604 6.12976L175.302 0.588991C170.497 2.58557 166.204 5.46232 162.435 9.19731L166.659 13.4589ZM177.597 6.1326C181.698 4.44085 185.996 3.59375 190.516 3.59375V-2.40625C185.223 -2.40625 180.146 -1.4096 175.309 0.586145L177.597 6.1326ZM190.516 3.59375H193.188V-2.40625H190.516V3.59375ZM190.188 0.59375V5.89062H196.188V0.59375H190.188ZM193.188 2.89062H190.516V8.89062H193.188V2.89062ZM244.469 64.4844L246.358 66.8146L246.364 66.8095L246.371 66.8044L244.469 64.4844ZM244.469 10.1562L242.567 12.4763L242.573 12.4814L242.579 12.4865L244.469 10.1562ZM221.5 10.1562L223.389 12.4865L223.396 12.4814L223.402 12.4763L221.5 10.1562ZM221.5 64.4844L219.598 66.8044L219.604 66.8095L219.611 66.8146L221.5 64.4844ZM253.141 11.6094L255.58 9.86373L255.558 9.83291L255.536 9.80266L253.141 11.6094ZM253.141 62.9844L255.536 64.7911L255.558 64.7608L255.58 64.73L253.141 62.9844ZM243.906 71.1875L245.343 73.8212L245.351 73.8167L243.906 71.1875ZM222.016 71.1875L220.561 73.8111L220.575 73.8189L220.589 73.8266L222.016 71.1875ZM212.828 62.9844L210.388 64.73L210.41 64.7608L210.433 64.7911L212.828 62.9844ZM212.828 11.6094L210.433 9.80266L210.41 9.83291L210.388 9.86373L212.828 11.6094ZM222.016 3.45312L223.452 6.08682L223.46 6.08227L222.016 3.45312ZM243.906 3.45312L242.451 6.07672L242.465 6.08456L242.48 6.09225L243.906 3.45312ZM232.984 71.7031C237.907 71.7031 242.393 70.0295 246.358 66.8146L242.579 62.1541C239.607 64.5643 236.436 65.7031 232.984 65.7031V71.7031ZM246.371 66.8044C250.261 63.6148 253.294 59.4081 255.517 54.2886L250.014 51.8989C248.112 56.2794 245.614 59.6664 242.567 62.1644L246.371 66.8044ZM255.517 54.2886C257.762 49.1199 258.859 43.4412 258.859 37.2969H252.859C252.859 42.715 251.895 47.5676 250.014 51.8989L255.517 54.2886ZM258.859 37.2969C258.859 31.1525 257.762 25.4739 255.517 20.3051L250.014 22.6949C251.895 27.0261 252.859 31.8787 252.859 37.2969H258.859ZM255.517 20.3051C253.294 15.1837 250.257 10.9873 246.358 7.82598L242.579 12.4865C245.618 14.9502 248.113 18.3163 250.014 22.6949L255.517 20.3051ZM246.371 7.83624C242.407 4.58643 237.917 2.89062 232.984 2.89062V8.89062C236.427 8.89062 239.593 10.0386 242.567 12.4763L246.371 7.83624ZM232.984 2.89062C228.052 2.89062 223.562 4.58643 219.598 7.83624L223.402 12.4763C226.375 10.0386 229.542 8.89062 232.984 8.89062V2.89062ZM219.611 7.82598C215.712 10.9873 212.675 15.1837 210.451 20.3051L215.955 22.6949C217.856 18.3163 220.351 14.9502 223.389 12.4865L219.611 7.82598ZM210.451 20.3051C208.207 25.4739 207.109 31.1525 207.109 37.2969H213.109C213.109 31.8787 214.074 27.0261 215.955 22.6949L210.451 20.3051ZM207.109 37.2969C207.109 43.4412 208.207 49.1199 210.451 54.2886L215.955 51.8989C214.074 47.5676 213.109 42.715 213.109 37.2969H207.109ZM210.451 54.2886C212.674 59.4081 215.707 63.6148 219.598 66.8044L223.402 62.1644C220.355 59.6664 217.857 56.2794 215.955 51.8989L210.451 54.2886ZM219.611 66.8146C223.576 70.0295 228.061 71.7031 232.984 71.7031V65.7031C229.532 65.7031 226.362 64.5643 223.389 62.1541L219.611 66.8146ZM250.701 13.355C255.661 20.2874 258.156 28.2325 258.156 37.2969H264.156C264.156 27.0488 261.308 17.8688 255.58 9.86373L250.701 13.355ZM258.156 37.2969C258.156 46.3613 255.661 54.3063 250.701 61.2387L255.58 64.73C261.308 56.7249 264.156 47.545 264.156 37.2969H258.156ZM250.746 61.1777C248.281 64.4452 245.514 66.8806 242.461 68.5583L245.351 73.8167C249.236 71.6819 252.626 68.6486 255.536 64.7911L250.746 61.1777ZM242.47 68.5538C239.464 70.1931 236.316 71 232.984 71V77C237.34 77 241.473 75.9319 245.343 73.8212L242.47 68.5538ZM232.984 71C229.652 71 226.485 70.1929 223.442 68.5484L220.589 73.8266C224.484 75.9321 228.629 77 232.984 77V71ZM223.471 68.5639C220.447 66.887 217.692 64.4504 215.223 61.1777L210.433 64.7911C213.339 68.6434 216.71 71.6755 220.561 73.8111L223.471 68.5639ZM215.268 61.2387C210.308 54.3063 207.812 46.3613 207.812 37.2969H201.812C201.812 47.545 204.661 56.7249 210.388 64.73L215.268 61.2387ZM207.812 37.2969C207.812 28.2325 210.308 20.2874 215.268 13.355L210.388 9.86373C204.661 17.8688 201.812 27.0488 201.812 37.2969H207.812ZM215.223 13.4161C217.689 10.1468 220.438 7.73075 223.452 6.08681L220.579 0.819439C216.718 2.9255 213.342 5.947 210.433 9.80266L215.223 13.4161ZM223.46 6.08227C226.5 4.41178 229.661 3.59375 232.984 3.59375V-2.40625C228.62 -2.40625 224.469 -1.31803 220.571 0.823977L223.46 6.08227ZM232.984 3.59375C236.307 3.59375 239.449 4.41151 242.451 6.07672L245.361 0.829529C241.489 -1.31776 237.349 -2.40625 232.984 -2.40625V3.59375ZM242.48 6.09225C245.523 7.7371 248.283 10.152 250.746 13.4161L255.536 9.80266C252.623 5.94176 249.227 2.91915 245.333 0.814005L242.48 6.09225ZM278.125 74V77H281.125V74H278.125ZM272.781 74H269.781V77H272.781V74ZM272.781 0.59375L275.329 -0.990052L269.781 -9.91486V0.59375H272.781ZM292.188 31.8125L289.64 33.3963L292.508 38.0109L294.885 33.1249L292.188 31.8125ZM307.375 0.59375L308.695 -2.10001L305.994 -3.42445L304.677 -0.718647L307.375 0.59375ZM312.156 2.9375L314.853 4.25114L316.164 1.56087L313.477 0.243738L312.156 2.9375ZM292.75 42.7812L290.199 44.3603L293.064 48.9879L295.447 44.0949L292.75 42.7812ZM278.125 19.1562L280.676 17.5772L275.125 8.61052V19.1562H278.125ZM278.125 71H272.781V77H278.125V71ZM275.781 74V0.59375H269.781V74H275.781ZM270.233 2.17755L289.64 33.3963L294.735 30.2287L275.329 -0.990052L270.233 2.17755ZM294.885 33.1249L310.073 1.90615L304.677 -0.718647L289.49 30.5001L294.885 33.1249ZM306.055 3.28751L310.836 5.63126L313.477 0.243738L308.695 -2.10001L306.055 3.28751ZM309.459 1.62386L290.053 41.4676L295.447 44.0949L314.853 4.25114L309.459 1.62386ZM295.301 41.2022L280.676 17.5772L275.574 20.7353L290.199 44.3603L295.301 41.2022ZM275.125 19.1562V74H281.125V19.1562H275.125ZM363.156 68.7031H366.156V65.7031H363.156V68.7031ZM363.156 74V77H366.156V74H363.156ZM323.781 74H320.781V77H323.781V74ZM323.781 0.59375V-2.40625H320.781V0.59375H323.781ZM363.156 0.59375H366.156V-2.40625H363.156V0.59375ZM363.156 5.89062V8.89062H366.156V5.89062H363.156ZM329.125 5.89062V2.89062H326.125V5.89062H329.125ZM329.125 68.7031H326.125V71.7031H329.125V68.7031ZM360.156 68.7031V74H366.156V68.7031H360.156ZM363.156 71H323.781V77H363.156V71ZM326.781 74V0.59375H320.781V74H326.781ZM323.781 3.59375H363.156V-2.40625H323.781V3.59375ZM360.156 0.59375V5.89062H366.156V0.59375H360.156ZM363.156 2.89062H329.125V8.89062H363.156V2.89062ZM326.125 5.89062V68.7031H332.125V5.89062H326.125ZM329.125 71.7031H363.156V65.7031H329.125V71.7031Z" fill="white"/>
</svg>
